<?xml version="1.0" encoding="utf-8"?>
<!-- Generator: Adobe Illustrator 17.1.0, SVG Export Plug-In . SVG Version: 6.00 Build 0)  -->
<!DOCTYPE svg PUBLIC "-//W3C//DTD SVG 1.1//EN" "http://www.w3.org/Graphics/SVG/1.1/DTD/svg11.dtd">
<svg version="1.1" id="Layer_1" xmlns="http://www.w3.org/2000/svg" xmlns:xlink="http://www.w3.org/1999/xlink" x="0px" y="0px"
	 viewBox="0 0 1000 700" enable-background="new 0 0 1000 700" xml:space="preserve">
<g>
	<polygon opacity="0.5" fill="#91157D" points="265,429.9 271.5,457.3 308.8,457.3 437.9,411.3 	"/>
	<polygon opacity="0.5" fill="#91157D" points="338.3,381.7 462,403.6 567.1,342.3 548.5,331.4 	"/>
	<polygon opacity="0.5" fill="#91157D" points="248.6,315 225.6,366.4 246.4,351.1 258.4,321.5 	"/>
	<polygon opacity="0.5" fill="#91157D" points="242,393.8 335,429.9 301.1,389.4 246.4,409.1 	"/>
	<polygon opacity="0.5" fill="#91157D" points="283.6,428.8 472.9,378.5 285.8,378.5 297.8,444.1 	"/>
	<polygon opacity="0.5" fill="#91157D" points="501.4,328.1 636,307.3 598.8,336.9 551.7,355.5 	"/>
	<path opacity="0.7" fill="#C27F14" d="M366.8,360.9l82.1-31.7l-19.7,13.1l23-5.5l-50.3,23l64.6-12c0,0-154.3,38.3-155.4,39.4
		c-1.1,1.1,29.6-19.7,29.6-19.7L366.8,360.9z"/>
	<path opacity="0.7" fill="#C27F14" d="M589,312.8l-69,31.7l72.2-19.7c0,0-28.5-4.4-29.6-4.4c-1.1,0,53.6-16.4,53.6-16.4l47.1-5.5
		L589,312.8z"/>
	<polygon opacity="0.7" fill="#C27F14" points="405.1,411.3 482.8,351.1 474,364.2 580.2,333.6 347.1,412.4 321.9,427.7 346,434.3 	
		"/>
	<polygon opacity="0.7" fill="#C27F14" points="409.5,358.8 527.7,346.7 534.2,327 398.5,374.1 	"/>
	<polygon opacity="0.7" fill="#C27F14" points="265,315 290.2,351.1 317.5,353.3 288,368.6 277,399.3 271.5,286.5 	"/>
	<polygon opacity="0.7" fill="#C27F14" points="254,412.4 303.3,439.7 278.1,412.4 	"/>
	<polygon opacity="0.7" fill="#C27F14" points="240.9,358.8 239.8,417.9 235.4,393.8 	"/>
	<path opacity="0.7" fill="#C27F14" d="M231.1,348.9c1.1,6.6,24.1,78.8,24.1,78.8l38.3,9.9L231.1,348.9z"/>
	<polygon opacity="0.7" fill="#C27F14" points="268.3,396 351.4,396 291.2,413.5 228.9,415.7 	"/>
	<polygon opacity="0.7" fill="#C27F14" points="613,322.6 817.7,242.7 685.3,277.8 	"/>
	<polygon fill="#7A1618" points="440.1,342.3 340.5,377.4 348.2,390.5 460.9,376.3 545.2,317.2 	"/>
	<path fill="#7A1618" d="M315.3,358.8l67.9,10.9c0,0-93,27.4-95.2,28.5c-2.2,1.1-44.9,0-44.9,0L315.3,358.8z"/>
	<polygon fill="#7A1618" points="346,422.2 292.3,389.4 285.8,415.7 293.4,462.7 	"/>
	<path fill="#7A1618" d="M312,427.7l130.2-28.5l113.8-59.1l-89.7,30.6c0,0-30.6,42.7-35,43.8c-4.4,1.1-65.7,7.7-75.5,7.7
		c-9.9,0-75.5,2.2-75.5,2.2L312,427.7z"/>
	<polygon fill="#7A1618" points="252.9,340.1 265,295.3 283.6,263.5 277,310.6 284.7,331.4 285.8,316.1 295.6,342.3 278.1,347.8 
		246.4,320.4 236.5,375.2 	"/>
	<polygon fill="#7A1618" points="228.9,413.5 236.5,435.4 279.2,454 	"/>
	<polygon fill="#7A1618" points="427,396 576.9,320.4 596.6,331.4 422.6,363.1 398.5,386.1 493.7,336.9 	"/>
	<polygon fill="#7A1618" points="645.9,308.4 735.6,263.5 632.7,289.8 806.8,249.3 764.1,270.1 636,296.4 618.5,308.4 	"/>
	<polygon fill="#B4BB0C" points="272.6,354.4 405.1,376.3 332.8,386.1 256.2,390.5 294.5,371.9 244.2,352.2 	"/>
	<polygon fill="#B4BB0C" points="343.8,424.4 458.7,359.9 437.9,390.5 267.2,417.9 	"/>
	<polygon fill="#B4BB0C" points="282.5,444.1 346,431 275.9,416.8 239.8,400.3 260.6,433.2 	"/>
	<polygon fill="#B4BB0C" points="402.9,365.3 499.2,330.3 526.6,338 468.6,332.5 388.7,386.1 	"/>
	<polygon fill="#B4BB0C" points="512.3,371.9 597.7,306.2 637.1,312.8 526.6,329.2 460.9,341.2 509.1,359.9 546.3,355.5 	"/>
	<path fill="#B4BB0C" d="M660.1,299.7l145.6-47.1l12-9.9c0,0-3.3-1.1-4.4-1.1c-1.1,0-182.8,86.5-182.8,86.5L660.1,299.7z"/>
	<path fill="#B4BB0C" d="M275.9,264.6l-36.1,59.1l15.3,6.6l9.9,53.6l9.9-39.4l2.2-32.8l-4.4-9.9c0,0,23-7.7,8.8-6.6
		c-14.2,1.1-14.2,1.1-14.2,1.1l14.2-16.4l4.4-12l-13.1,8.8L275.9,264.6z"/>
	<polygon opacity="0.5" fill="#91157D" points="268.3,283.2 301.1,237.3 281.4,357.7 383.2,375.2 226.7,396 308.8,369.7 
		255.1,312.8 	"/>
	<polygon opacity="0.5" fill="#91157D" points="320.8,373 429.2,354.4 367.9,389.4 306.6,406.9 366.8,371.9 316.4,358.8 	"/>
	<polygon opacity="0.5" fill="#91157D" points="684.2,283.2 527.7,316.1 546.3,317.2 502.5,346.7 669.9,282.1 	"/>
	<polygon opacity="0.5" fill="#91157D" points="482.8,386.1 608.7,330.3 479.5,356.6 627.3,332.5 	"/>
	<polygon opacity="0.5" fill="#91157D" points="343.8,443 427,410.2 330.7,387.2 408.4,393.8 291.2,433.2 	"/>
	<polygon opacity="0.6" fill="#783D35" points="224.5,368.6 222.3,408 262.8,338 270.5,346.7 	"/>
	<polygon opacity="0.6" fill="#783D35" points="227.8,358.8 232.1,426.6 244.2,344.5 280.3,398.2 	"/>
	<polygon opacity="0.6" fill="#783D35" points="225.6,408 257.3,441.9 366.8,417.9 356.9,385 303.3,448.5 	"/>
	<polygon opacity="0.6" fill="#783D35" points="571.6,343.2 664.5,308.4 604.6,310.6 	"/>
	<polygon opacity="0.6" fill="#783D35" points="603.3,294.1 566,311.7 706.6,278.9 669.7,308.1 622.2,290.5 	"/>
	<polygon opacity="0.6" fill="#783D35" points="290.2,360.9 390.8,370.8 266.1,404.7 318.6,409.1 	"/>
	<polygon opacity="0.6" fill="#783D35" points="240.9,357.7 279.2,276.7 279.2,298.6 288,309.5 289.1,299.7 260.6,341.2 
		291.2,375.2 237.6,403.6 	"/>
	<polygon opacity="0.6" fill="#783D35" points="416.5,369.8 445.8,343.3 479.1,357.6 505.2,366.8 517.8,341.2 440.3,392.6 	"/>
	<polygon opacity="0.7" fill="#BD1556" points="391.9,415.7 466.4,368.6 343.8,369.7 457.6,405.8 	"/>
	<polygon opacity="0.7" fill="#BD1556" points="602.1,338 632.7,292 547.4,318.3 696.2,297.5 	"/>
	<polygon opacity="0.7" fill="#BD1556" points="224.5,386.1 231.1,431 338.3,427.7 	"/>
	<polygon opacity="0.7" fill="#BD1556" points="236.5,432.1 315.3,455.1 298.9,400.3 	"/>
	<polygon opacity="0.7" fill="#BD1556" points="659,304 604.3,317.2 621.8,295.3 706.1,269 610.8,319.4 645.9,318.3 	"/>
	<polygon opacity="0.7" fill="#BD1556" points="313.1,366.4 277,311.7 273.7,351.1 	"/>
	<polygon opacity="0.7" fill="#BD1556" points="259.5,426.6 355.8,434.3 321.9,422.2 	"/>
	<polygon opacity="0.7" fill="#BD1556" points="247.5,438.7 301.1,416.8 245.3,428.8 	"/>
	<polygon opacity="0.7" fill="#BD1556" points="224.5,415.7 246.4,447.4 234.3,421.1 	"/>
	<polygon opacity="0.7" fill="#BD1556" points="307.7,451.8 236.5,433.2 280.3,457.3 	"/>
	<polygon opacity="0.8" fill="#DC0C2C" points="261.7,312.8 244.2,381.7 284.7,402.5 273.7,363.1 	"/>
	<polygon opacity="0.8" fill="#DC0C2C" points="235.4,367.5 317.5,385 245.3,403.6 	"/>
	<polygon opacity="0.8" fill="#DC0C2C" points="234.3,388.3 388.7,403.6 327.4,433.2 	"/>
	<polygon opacity="0.8" fill="#DC0C2C" points="234.3,421.1 405.1,376.3 263.9,387.2 	"/>
	<polygon opacity="0.8" fill="#DC0C2C" points="245.3,428.8 292.3,451.8 419.3,404.7 	"/>
	<polygon opacity="0.8" fill="#DC0C2C" points="277,432.1 377.7,374.1 243.1,398.2 	"/>
	<polygon opacity="0.8" fill="#DC0C2C" points="433.5,405.8 511.2,370.8 440.1,374.1 481.7,362 379.9,412.4 	"/>
</g>
</svg>
