<?xml version="1.0" encoding="utf-8"?>
<!-- Generator: Adobe Illustrator 17.1.0, SVG Export Plug-In . SVG Version: 6.00 Build 0)  -->
<!DOCTYPE svg PUBLIC "-//W3C//DTD SVG 1.1//EN" "http://www.w3.org/Graphics/SVG/1.1/DTD/svg11.dtd">
<svg version="1.1" id="Layer_1" xmlns="http://www.w3.org/2000/svg" xmlns:xlink="http://www.w3.org/1999/xlink" x="0px" y="0px"
	 viewBox="0 0 200 100" enable-background="new 0 0 200 100" xml:space="preserve">
<path fill="#F4F4F4" d="M42.7,24.5c-9.9,11.6-19.4,26-19.5,36.7c0,4,1.3,7.6,4.4,10.3c4.5,3.9,9.4,5.2,14.3,5.2
	c7.1,0,14.2-2.9,19.8-5.1c9.4-3.7,112.8-48.7,112.8-48.7c1-0.5,0.8-1.1-0.4-0.8c-0.5,0.1-112.6,30.5-112.6,30.5
	c-2.2,0.6-4.4,0.9-6.5,0.9c-8.6,0-16.3-4.7-16.2-14.8C38.7,34.8,39.9,30.1,42.7,24.5L42.7,24.5z"/>
</svg>
